<?xml version="1.0" encoding="UTF-8"?>
<svg version="1.1" xmlns="http://www.w3.org/2000/svg" width="3782" height="793">
<path d="M0 0 C6.08607526 -0.09141673 12.17234329 -0.15638273 18.25882399 -0.21403903 C22.17314597 -0.25302916 26.0859283 -0.30568312 29.99936485 -0.398839 C52.34291825 -0.92182503 72.4429127 2.31913368 93.98230934 8.22982502 C94.63668747 8.40912532 95.29106561 8.58842562 95.96527338 8.77315927 C135.93480242 19.77289347 174.3789269 34.88007729 209.98230934 56.22982502 C211.21642555 56.96869953 211.21642555 56.96869953 212.4754734 57.7225008 C223.53205676 64.39563982 233.9101377 71.68124093 244.03162575 79.69662189 C245.85722647 81.13151208 247.70102499 82.53705747 249.55652809 83.93295002 C261.98271821 93.34763712 273.05678249 104.26255668 284.10730934 115.22982502 C284.60303444 115.7207967 285.09875954 116.21176838 285.60950661 116.71761799 C321.27561592 152.54664135 345.44863189 197.30443927 365.16724586 243.32949543 C365.88214153 244.99628265 366.60221562 246.66084684 367.32312965 248.32503986 C404.40287033 334.36087839 405.58217137 435.92427902 377.98230934 528.22982502 C377.69243141 529.18920979 377.40255348 530.14859455 377.10389137 531.13705158 C363.70849648 574.78742771 341.76359076 616.75993595 312.98230934 652.22982502 C311.88402809 653.61427814 311.88402809 653.61427814 310.76355934 655.02670002 C305.56319811 661.50884042 300.03066959 667.64397428 294.37195778 673.7225008 C293.02052286 675.18837557 291.69242122 676.67565483 290.36512184 678.16341877 C242.65714823 731.46327653 172.53024419 771.23829952 102.98230934 787.22982502 C101.62903542 787.54185871 101.62903542 787.54185871 100.24842262 787.86019611 C73.96221236 793.70316092 46.92909933 793.5314444 20.14242554 793.46195626 C15.86748645 793.45315521 11.5925516 793.45625343 7.31760597 793.45776081 C-0.0538461 793.45879936 -7.42526222 793.4526321 -14.79670525 793.44128513 C-25.4540007 793.42489106 -36.11127913 793.41980807 -46.76858583 793.41730915 C-64.06777641 793.4129536 -81.36694791 793.39970324 -98.66612816 793.38070393 C-115.45063241 793.36228927 -132.23513144 793.34816026 -149.01964378 793.3396883 C-150.05773598 793.33916285 -151.09582817 793.33863741 -152.16537771 793.33809604 C-157.37422485 793.33548558 -162.58307203 793.33295826 -167.79191923 793.33047223 C-210.86718957 793.30980654 -253.94243912 793.27464011 -297.01769066 793.22982502 C-297.08793627 775.31374826 -297.14075475 757.39770751 -297.17312717 739.48152256 C-297.18856131 731.16173656 -297.20958434 722.84203638 -297.24400902 714.52230549 C-297.27401761 707.26635895 -297.29329073 700.0104746 -297.29995614 692.75446773 C-297.3038491 688.91650642 -297.31292502 685.07872298 -297.33488083 681.24081898 C-297.35542764 677.61945316 -297.36148825 673.99833642 -297.3570137 670.37691784 C-297.3582169 668.43257543 -297.37426294 666.48825939 -297.39095116 664.54398823 C-297.34779348 652.13180872 -294.84416436 641.65076939 -288.01769066 631.22982502 C-287.41440941 630.25787189 -286.81112816 629.28591877 -286.18956566 628.28451252 C-283.9796448 625.25641486 -282.12913256 623.32854818 -279.01769066 621.22982502 C-275.78088951 621.02787113 -275.78088951 621.02787113 -272.05504417 621.45412922 C-270.61580544 621.59085489 -269.17598703 621.72157233 -267.73573875 621.84721851 C-266.96960888 621.9160345 -266.203479 621.98485048 -265.41413307 622.0557518 C-261.2335096 622.35942469 -257.05512581 622.36198046 -252.86510277 622.37026691 C-251.95692519 622.37352718 -251.04874762 622.37678744 -250.11304951 622.3801465 C-247.17370389 622.38781811 -244.23438915 622.38945586 -241.29503441 622.39095783 C-239.15430175 622.39559771 -237.0135699 622.4006239 -234.87283897 622.406003 C-229.10169818 622.41901527 -223.33056896 622.42554973 -217.55941582 622.43001366 C-213.94026095 622.43296218 -210.32110911 622.43707014 -206.7019558 622.44151783 C-195.33873575 622.45516249 -183.97552281 622.46484428 -172.61229515 622.46871972 C-159.56837316 622.47319504 -146.52455624 622.49073142 -133.48066616 622.51972032 C-123.34756609 622.54144604 -113.21449534 622.55142975 -103.08137226 622.55276084 C-97.05236243 622.55380097 -91.02345175 622.55953801 -84.99446678 622.57758045 C-79.31435925 622.59425122 -73.63442344 622.59612609 -67.95429993 622.58744144 C-65.89061391 622.58668115 -63.8269179 622.59087726 -61.76325607 622.6008997 C0.41455578 622.88473539 57.67339592 599.46072019 102.29480934 556.16732502 C106.85733854 551.46860092 110.89903512 546.34291972 114.98230934 541.22982502 C115.64102028 540.43834064 116.29973122 539.64685627 116.97840309 538.83138752 C145.79251304 503.92978956 164.93010536 456.5900434 165.18543434 411.12045002 C165.19602379 409.85953541 165.19602379 409.85953541 165.20682716 408.57314777 C165.46427102 383.24655421 165.46427102 383.24655421 161.98230934 358.22982502 C161.78363258 357.26302814 161.58495583 356.29623127 161.38025856 355.30013752 C152.19294799 311.14599174 130.71236156 273.88637898 99.98230934 241.22982502 C99.36613747 240.57111408 98.74996559 239.91240314 98.11512184 239.23373127 C84.91403782 225.55892414 68.45576933 214.56261526 51.98230934 205.22982502 C51.09406471 204.71790607 51.09406471 204.71790607 50.18787575 204.19564533 C30.67687846 193.00826966 9.22103226 185.74392933 -12.70519066 180.97982502 C-13.39169701 180.82868244 -14.07820335 180.67753986 -14.78551292 180.52181721 C-30.23252235 177.36798604 -45.42986385 176.99622169 -61.13274002 177.1388216 C-66.05925477 177.17817168 -70.98558084 177.17958887 -75.91223049 177.18362141 C-85.0365341 177.19128089 -94.16013835 177.21251421 -103.28404808 177.30160236 C-109.67781721 177.3625566 -116.07008273 177.37319721 -122.46408844 177.35290241 C-124.86813162 177.35416021 -127.27224509 177.37288694 -129.67598343 177.41119099 C-148.05320812 177.69217846 -162.32934848 173.8082284 -179.01769066 166.22982502 C-180.83837685 165.42683598 -182.65947423 164.62477837 -184.48105431 163.82381916 C-199.6523449 157.12076552 -213.91060303 148.37995368 -227.01769066 138.22982502 C-227.85429222 137.58529377 -228.69089378 136.94076252 -229.55284691 136.27670002 C-238.46987069 129.27538923 -246.75027897 121.94140186 -254.01769066 113.22982502 C-254.76534691 112.39322346 -255.51300316 111.55662189 -256.28331566 110.69466877 C-276.08550998 88.05914161 -286.75255207 60.63448586 -292.83019066 31.54232502 C-293.03740746 30.57021076 -293.24462425 29.5980965 -293.45812035 28.59652424 C-294.65747214 22.5057183 -295.25627473 16.51547941 -295.57896996 10.32821369 C-295.62224167 9.5463847 -295.66551338 8.7645557 -295.71009636 7.95903492 C-295.81539151 6.04944867 -295.9169291 4.13965585 -296.01769066 2.22982502 C-242.24641105 1.20491647 -188.4743478 0.93765886 -134.69472003 0.71241629 C-126.5061417 0.67792269 -118.31757838 0.64081452 -110.12901878 0.60213947 C-108.97615954 0.59671709 -107.82330029 0.59129472 -106.63550591 0.58570802 C-101.99760323 0.56388365 -97.35970061 0.54204912 -92.72179937 0.51991868 C-80.22557889 0.46050645 -67.72940525 0.40782133 -55.23308372 0.37518024 C-50.8412984 0.36325427 -46.44951394 0.3510385 -42.05772972 0.33871174 C-40.98903286 0.33583424 -39.92033601 0.33295675 -38.8192544 0.32999206 C-25.87794042 0.2930374 -12.9399088 0.19498491 0 0 Z " fill="#FFFFFF" transform="translate(297.01769065856934,-0.22982501983642578)"/>
<path d="M0 0 C2.44855009 2.24271959 4.85480355 4.52601682 7.25732422 6.81811523 C8.12099609 7.62893555 8.98466797 8.43975586 9.87451172 9.27514648 C35.39718133 33.88345254 59.52971919 76.11668146 63.69091797 111.50561523 C63.25732422 114.81811523 63.25732422 114.81811523 61.39085388 116.84660339 C57.03771523 119.58545233 52.66665458 120.52935365 47.68725586 121.67480469 C46.62327072 121.93058792 45.55928558 122.18637115 44.46305847 122.4499054 C40.950888 123.29040537 37.43449288 124.11141329 33.91748047 124.93139648 C31.47257524 125.51016585 29.02787056 126.08978298 26.58335876 126.67021179 C21.46177361 127.88311732 16.33811273 129.0868219 11.21264648 130.28320312 C5.29522365 131.6645931 -0.61780368 133.06366854 -6.52881521 134.47221977 C-12.22610337 135.82937337 -17.92638682 137.17351619 -23.62808418 138.51201439 C-26.04936213 139.08169768 -28.46986639 139.65467975 -30.88957024 140.23101234 C-34.27161285 141.03466254 -37.65678219 141.82347561 -41.04321289 142.60839844 C-42.04236725 142.84882874 -43.04152161 143.08925903 -44.07095337 143.3369751 C-48.88846556 144.43720144 -52.89017971 145.346303 -57.74267578 143.81811523 C-60.81355058 140.14132792 -61.69697699 135.74401553 -62.86767578 131.19311523 C-66.82859642 116.91752534 -73.17762968 103.20770771 -82.74267578 91.81811523 C-83.46326172 90.95959961 -84.18384766 90.10108398 -84.92626953 89.21655273 C-104.06147566 67.26246875 -129.95490174 55.50533388 -158.74267578 52.81811523 C-178.93606119 51.50767372 -198.73117394 53.86879568 -217.74267578 60.81811523 C-218.76232422 61.17518555 -219.78197266 61.53225586 -220.83251953 61.90014648 C-238.21975012 68.50496025 -255.49180311 80.93358751 -266.74267578 95.81811523 C-267.79841797 97.21223633 -267.79841797 97.21223633 -268.87548828 98.63452148 C-296.71658202 137.09298149 -301.20320466 186.72986172 -301.05517578 232.75561523 C-301.05294006 234.4853508 -301.05294006 234.4853508 -301.05065918 236.25003052 C-300.9303456 288.22504856 -295.69058157 346.75085743 -257.80517578 386.00561523 C-233.50022446 409.40862501 -202.60084981 419.2550422 -169.26733398 419.12036133 C-139.71881413 418.51076109 -113.92457329 406.63832337 -93.25708008 385.68432617 C-88.83708132 381.07040307 -85.07106869 376.28445395 -81.74267578 370.81811523 C-81.09943359 369.77268555 -80.45619141 368.72725586 -79.79345703 367.65014648 C-68.85626346 349.43370112 -61.71148058 329.16483669 -56.85986328 308.53295898 C-55.32477561 304.80258859 -54.45909893 303.5280406 -50.74267578 301.81811523 C-48.31202698 302.18185425 -48.31202698 302.18185425 -45.4362793 302.95825195 C-44.36275208 303.24702713 -43.28922485 303.53580231 -42.1831665 303.83332825 C-36.26901178 305.5261631 -30.38639194 307.30810632 -24.51220703 309.13452148 C-23.16053033 309.55210397 -21.80875689 309.96937344 -20.45689392 310.38635254 C-16.88771425 311.48804135 -13.31968884 312.59342059 -9.75193787 313.6997261 C-3.88129813 315.51933816 1.99115721 317.33309068 7.8634758 319.14727592 C9.30938323 319.59402198 10.75524769 320.04090711 12.20106888 320.48793221 C20.68988539 323.11222727 29.18394577 325.7165391 37.69873047 328.25561523 C38.49075363 328.4923143 39.28277679 328.72901337 40.09880066 328.97288513 C43.52431692 329.99549871 46.95170887 331.01080539 50.38305664 332.01367188 C52.09199097 332.52208618 52.09199097 332.52208618 53.83544922 333.04077148 C54.77807617 333.31671143 55.72070312 333.59265137 56.69189453 333.87695312 C59.50226833 334.90797625 61.81568833 336.08393182 64.25732422 337.81811523 C66.29986563 344.04148361 64.29739903 349.1364779 62.25732422 355.06811523 C61.9340918 356.0382959 61.61085938 357.00847656 61.27783203 358.00805664 C60.28864357 360.9511086 59.27568078 363.88504667 58.25732422 366.81811523 C57.97824219 367.63957031 57.69916016 368.46102539 57.41162109 369.30737305 C46.31787914 401.83902174 29.76615454 430.21508826 8.25732422 456.81811523 C7.81855957 457.36201904 7.37979492 457.90592285 6.92773438 458.46630859 C3.98950322 462.05815075 0.85776346 464.89275835 -2.74267578 467.81811523 C-3.48517578 468.56061523 -4.22767578 469.30311523 -4.99267578 470.06811523 C-29.68575251 494.76119196 -61.40288566 510.37501533 -94.74267578 519.81811523 C-95.47180176 520.02662109 -96.20092773 520.23512695 -96.95214844 520.44995117 C-107.73667945 523.48158279 -118.65230216 525.33359461 -129.74267578 526.81811523 C-130.48388672 526.92397949 -131.22509766 527.02984375 -131.98876953 527.13891602 C-194.95982147 535.86798758 -266.84058404 524.21352228 -318.74267578 485.81811523 C-320.28181641 484.6850293 -320.28181641 484.6850293 -321.85205078 483.52905273 C-339.92861751 470.01040401 -356.94873512 454.74762064 -370.74267578 436.81811523 C-371.51482422 435.86291992 -372.28697266 434.90772461 -373.08251953 433.92358398 C-407.12424995 391.16975195 -422.84725011 338.43161215 -428.74267578 284.81811523 C-428.84217529 283.91971924 -428.9416748 283.02132324 -429.04418945 282.09570312 C-430.94636976 264.08547428 -431.01667462 245.9078686 -430.74267578 227.81811523 C-430.72382324 226.44961426 -430.72382324 226.44961426 -430.70458984 225.0534668 C-429.40539613 152.69633144 -409.57852221 76.43694596 -358.74267578 22.81811523 C-357.67473895 21.55184728 -356.61194874 20.28121491 -355.55517578 19.00561523 C-330.30960771 -9.82964899 -294.75072987 -31.01690764 -258.74267578 -43.18188477 C-257.9329834 -43.45726074 -257.12329102 -43.73263672 -256.2890625 -44.01635742 C-172.11129661 -72.13210407 -67.32365414 -60.56566602 0 0 Z " fill="#FFFFFF" transform="translate(1859.74267578125,160.181884765625)"/>
<path d="M0 0 C1.77907242 0.00273422 1.77907242 0.00273422 3.59408569 0.00552368 C53.92284075 0.13558528 107.13337265 6.08466464 144.5625 43.3125 C157.82084429 57.3632587 164.60104711 73.61866163 168.5625 92.3125 C168.79211426 93.37428467 168.79211426 93.37428467 169.02636719 94.45751953 C179.15330618 142.87339078 173.62703024 195.65376166 172.91870117 244.84277344 C172.1781253 284.871759 172.1781253 284.871759 173.3125 324.875 C173.37585541 326.05656174 173.37585541 326.05656174 173.44049072 327.26199341 C174.168585 340.48473515 175.62136326 353.37875354 178.5625 366.3125 C178.70913086 366.99103027 178.85576172 367.66956055 179.00683594 368.36865234 C182.22687047 383.02241228 187.89532757 397.73256938 194.75 411.05859375 C195.83353532 414.06436241 196.03029412 416.14235949 195.5625 419.3125 C193.41680512 421.78224675 191.64310239 423.13047686 188.37304497 423.68130493 C185.59226054 423.83465225 182.83747895 423.85274197 180.05249023 423.83007812 C178.46632401 423.84059204 178.46632401 423.84059204 176.84811401 423.85131836 C173.35550622 423.86891248 169.86370967 423.85727075 166.37109375 423.84375 C163.94401392 423.84644429 161.51693514 423.85032618 159.08985901 423.85534668 C154.00486976 423.86124351 148.92016165 423.85267166 143.83520508 423.83398438 C137.31239952 423.81118306 130.79025184 423.82432492 124.26747036 423.84827423 C119.25664802 423.86271656 114.24598211 423.85813352 109.23515511 423.84776306 C106.82975245 423.8450921 104.42433566 423.84837846 102.01894951 423.85768127 C98.65995431 423.86782198 95.30203048 423.85237968 91.94311523 423.83007812 C90.94612106 423.83817505 89.94912689 423.84627197 88.92192078 423.85461426 C82.20414591 423.77184117 82.20414591 423.77184117 78.99946594 421.47767639 C77.08389443 418.59135174 76.06150593 415.75794263 74.984375 412.46484375 C74.76807434 411.81173721 74.55177368 411.15863068 74.32891846 410.48573303 C73.87638019 409.11172444 73.42959529 407.73580897 72.98828125 406.3581543 C72.31228537 404.24933046 71.61870458 402.14694266 70.921875 400.04492188 C67.5625 389.7887086 67.5625 389.7887086 67.5625 386.3125 C63.93634743 388.37076098 60.8483333 390.66219759 57.6875 393.375 C38.48308078 409.16643225 16.43628872 420.47617373 -7.4375 427.3125 C-8.3027832 427.57248779 -9.16806641 427.83247559 -10.05957031 428.1003418 C-49.2127127 439.46908255 -95.00084784 434.55487294 -131.125 416 C-158.15605377 400.89829881 -179.29924362 375.72400344 -188.4453125 346.078125 C-190.16663562 339.54522939 -191.4101109 332.98693685 -192.4375 326.3125 C-192.57027344 325.45527344 -192.70304687 324.59804688 -192.83984375 323.71484375 C-196.71860051 292.73792329 -189.22424023 259.59606615 -170.12890625 234.65625 C-149.96773521 209.26755944 -123.88806109 196.33494435 -93.1875 187.125 C-92.20370361 186.82851563 -91.21990723 186.53203125 -90.20629883 186.2265625 C-70.42762224 180.51358883 -50.16258949 176.57719056 -29.96688843 172.67294312 C-1.43768944 167.13526042 27.21712641 161.37465046 54.5625 151.3125 C55.14970843 137.21949758 55.24931837 121.8997628 46.2421875 110.13671875 C33.68393341 96.49787071 13.31478608 95.9360511 -4.1015625 95.0234375 C-21.28444454 94.48163491 -40.74604239 96.69676825 -54.29296875 108.14453125 C-62.40964599 116.34991534 -67.04288186 126.15762402 -71.43164062 136.68432617 C-71.78162109 137.51424072 -72.13160156 138.34415527 -72.4921875 139.19921875 C-72.94827393 140.31623169 -72.94827393 140.31623169 -73.41357422 141.45581055 C-74.4375 143.3125 -74.4375 143.3125 -77.4375 145.3125 C-88.18873465 145.71950009 -99.34335104 142.9089678 -109.87109375 141.00390625 C-111.72136388 140.6733931 -113.57171229 140.34331783 -115.4221344 140.01365662 C-119.2745925 139.32589189 -123.12622885 138.63374834 -126.97729492 137.93823242 C-131.90405073 137.04868355 -136.83249259 136.16891722 -141.76154995 135.29222202 C-145.5720368 134.61360846 -149.38171333 133.93053496 -153.19114876 133.24604607 C-155.00854841 132.91990835 -156.8261672 132.5949892 -158.64401054 132.27133369 C-161.18073046 131.81885808 -163.71632778 131.36054447 -166.25170898 130.90063477 C-166.99517578 130.76913528 -167.73864258 130.6376358 -168.50463867 130.50215149 C-172.61747833 129.74889483 -176.57019062 128.92288727 -180.4375 127.3125 C-182.72737119 123.87769321 -182.50738621 122.46623317 -181.88720703 118.50683594 C-181.14563334 114.88834281 -180.07063803 111.42929322 -178.875 107.9375 C-178.61178955 107.16365967 -178.3485791 106.38981934 -178.07739258 105.5925293 C-165.0651838 68.28935677 -141.16589663 36.46252549 -105.4375 18.3125 C-90.56843715 11.37693042 -74.52417576 7.07630896 -58.4375 4.0625 C-57.64593506 3.91151855 -56.85437012 3.76053711 -56.03881836 3.60498047 C-37.47993521 0.35905138 -18.79207095 -0.0600144 0 0 Z M45.80078125 235.96484375 C44.37700426 236.32856936 42.95317348 236.69208446 41.52929688 237.05541992 C40.39415649 237.3469545 40.39415649 237.3469545 39.23608398 237.64437866 C25.58827371 241.14506105 11.90557722 244.40422419 -1.85494995 247.43099976 C-38.36227397 253.79215792 -38.36227397 253.79215792 -67.1796875 274.765625 C-73.86828521 285.45458019 -75.31502081 294.81100447 -73.16796875 307.16015625 C-70.36131166 319.27230745 -62.54660596 330.10569143 -52.3125 337.0625 C-36.40810497 346.5660812 -18.72361938 346.65037836 -1.09375 342.53125 C12.31439155 338.75614219 23.88635863 332.18534694 34.5625 323.3125 C35.22894531 322.76078125 35.89539062 322.2090625 36.58203125 321.640625 C44.32859236 314.57604105 50.14146209 304.49186395 52.5625 294.3125 C52.75328125 293.52488281 52.9440625 292.73726562 53.140625 291.92578125 C55.95851116 279.1043992 55.68764943 266.17381153 55.625 253.125 C55.61997456 251.29622518 55.6154135 249.46744903 55.61132812 247.63867188 C55.60040619 243.19658105 55.58319923 238.75455559 55.5625 234.3125 C52.04806959 234.3125 49.20910338 235.08442523 45.80078125 235.96484375 Z " fill="#FFFFFF" transform="translate(2903.4375,256.6875)"/>
<path d="M0 0 C2.97571061 2.65617754 5.85246729 5.4098548 8.72265625 8.1796875 C10.08970703 9.45199219 10.08970703 9.45199219 11.484375 10.75 C57.04777934 54.2984749 67.98516994 122.78222406 69.83642578 182.87255859 C69.91097692 186.32957445 69.95350617 189.78444879 69.97265625 193.2421875 C69.98655396 194.79365479 69.98655396 194.79365479 70.00073242 196.37646484 C69.99662354 197.33375488 69.99251465 198.29104492 69.98828125 199.27734375 C69.98602539 200.10758057 69.98376953 200.93781738 69.98144531 201.79321289 C69.67101273 204.65592844 69.13227873 206.65761051 67.72265625 209.1796875 C62.94971715 211.97210785 57.67830158 211.45171042 52.32670593 211.42019653 C50.73996298 211.42275981 50.73996298 211.42275981 49.12116462 211.42537487 C45.57118635 211.4286731 42.02139645 211.4176604 38.47143555 211.40673828 C35.92885848 211.40617424 33.3862811 211.40649059 30.84370422 211.40762329 C25.366931 211.40807895 19.89021859 211.40240052 14.41345787 211.39114761 C6.49500995 211.37488845 -1.42341492 211.36968418 -9.34187772 211.36717163 C-22.18927595 211.36279518 -35.03664877 211.34948744 -47.8840332 211.33056641 C-60.3635241 211.31220631 -72.84300809 211.29805044 -85.32250977 211.28955078 C-86.09184101 211.28902533 -86.86117225 211.28849989 -87.65381656 211.28795852 C-91.51335373 211.28534843 -95.37289094 211.28282102 -99.23242819 211.28033471 C-131.24741851 211.25960377 -163.2623776 211.2243796 -195.27734375 211.1796875 C-194.83023897 214.33051056 -194.37297711 217.4797834 -193.9140625 220.62890625 C-193.78930542 221.50897339 -193.66454834 222.38904053 -193.53601074 223.29577637 C-190.7592113 242.21027053 -184.17654631 258.80327564 -171.27734375 273.1796875 C-170.76042969 273.78941406 -170.24351562 274.39914062 -169.7109375 275.02734375 C-157.60151249 288.3507462 -139.21322908 295.35820373 -121.56640625 296.3984375 C-104.47303162 296.95314535 -88.70113279 293.22240222 -75.296875 282.13671875 C-65.1372222 272.29148461 -59.63764365 258.19865761 -55.41796875 244.9453125 C-54.27734375 242.1796875 -54.27734375 242.1796875 -51.27734375 240.1796875 C-45.08568563 239.79741947 -39.27143647 240.65709536 -33.17700195 241.69262695 C-32.19875458 241.85361877 -31.2205072 242.0146106 -30.21261597 242.18048096 C-26.99995351 242.71121279 -23.7890087 243.25158697 -20.578125 243.79296875 C-18.33713681 244.16719402 -16.09610317 244.54114723 -13.85502625 244.9148407 C-9.16812684 245.69808682 -4.48212099 246.48644515 0.20336914 247.27807617 C6.2070573 248.29173085 12.21322037 249.28979649 18.22020245 250.28371906 C22.84451287 251.05111371 27.4671648 251.82814738 32.08939552 252.60796165 C34.30361594 252.98005071 36.51839874 253.34880915 38.73373985 253.71416664 C41.82777599 254.22563677 44.91927649 254.75038678 48.01049805 255.27856445 C48.9243779 255.42674118 49.83825775 255.57491791 50.77983093 255.72758484 C55.2869912 256.51241722 59.07439723 257.2196932 62.72265625 260.1796875 C64.31851075 265.56811928 63.46000881 268.98191452 61.28515625 274.0546875 C61.01074707 274.69760742 60.73633789 275.34052734 60.45361328 276.00292969 C59.56129932 278.07023152 58.64227503 280.12440946 57.72265625 282.1796875 C57.43213379 282.85354492 57.14161133 283.52740234 56.84228516 284.22167969 C39.46729514 324.51625487 7.63386186 358.46026786 -33.27734375 375.1796875 C-87.90403536 396.68999354 -154.38220252 396.49351956 -208.640625 373.79296875 C-253.32224745 353.97179789 -284.67513422 318.3471814 -302.50195312 273.06933594 C-310.4527948 251.67322414 -314.85294436 229.82487699 -317.27734375 207.1796875 C-317.37378174 206.36121338 -317.47021973 205.54273926 -317.56958008 204.69946289 C-318.52157568 195.81445321 -318.47764017 186.91741451 -318.46484375 177.9921875 C-318.46390717 177.14965424 -318.46297058 176.30712097 -318.46200562 175.4390564 C-318.31598465 114.69793153 -303.02615174 55.81189585 -260.27734375 11.1796875 C-259.80039063 10.67550293 -259.3234375 10.17131836 -258.83203125 9.65185547 C-234.2538288 -16.23247472 -202.05895608 -32.57414326 -167.27734375 -39.8203125 C-166.51808594 -39.98547363 -165.75882813 -40.15063477 -164.9765625 -40.32080078 C-108.69789723 -52.06982266 -43.48275722 -37.91622032 0 0 Z M-165.27734375 66.1796875 C-165.97601562 66.71335937 -166.6746875 67.24703125 -167.39453125 67.796875 C-182.75402472 80.2876693 -190.48667711 100.07435435 -193.27734375 119.1796875 C-193.60734375 123.4696875 -193.93734375 127.7596875 -194.27734375 132.1796875 C-146.42734375 132.1796875 -98.57734375 132.1796875 -49.27734375 132.1796875 C-52.04544363 107.26678858 -57.55254492 82.92835937 -77.67578125 66.08984375 C-104.09029951 46.69540016 -139.11599375 45.69402021 -165.27734375 66.1796875 Z " fill="#FFFFFF" transform="translate(2595.27734375,299.8203125)"/>
<path d="M0 0 C34.75393946 30.43878203 53.21910028 71.40133805 61.75292969 116.23339844 C61.90600586 117.01827637 62.05908203 117.8031543 62.21679688 118.61181641 C66.39274544 140.16252623 67.94622905 161.78690113 67.99316406 183.71728516 C68.00306284 186.5211144 68.03429408 189.3242654 68.06542969 192.12792969 C68.07194445 193.91828999 68.07720087 195.70865543 68.08105469 197.49902344 C68.09957489 198.75045135 68.09957489 198.75045135 68.11846924 200.02716064 C68.09602684 205.80178539 68.09602684 205.80178539 66.41815186 207.91253662 C63.54022124 210.19532431 60.88549711 210.36007094 57.35450459 210.37206364 C56.44981538 210.37753808 55.54512618 210.38301252 54.61302215 210.38865286 C53.61789601 210.38963097 52.62276988 210.39060907 51.5974884 210.39161682 C50.54136862 210.3965548 49.48524884 210.40149278 48.39712542 210.40658039 C44.84100517 210.42199808 41.28490303 210.43032758 37.72875977 210.4387207 C35.18647603 210.44829587 32.64419389 210.45830573 30.10191345 210.46871948 C24.61967822 210.49019388 19.13744602 210.50863056 13.65519142 210.52432442 C5.72873776 210.54702041 -2.19768916 210.57516362 -10.12412015 210.6046437 C-22.98369526 210.65232292 -35.84328128 210.69558621 -48.70288086 210.73608398 C-61.19605357 210.77543723 -73.68921657 210.81686304 -86.18237305 210.86108398 C-87.33715808 210.86517039 -87.33715808 210.86517039 -88.5152721 210.86933935 C-92.3773507 210.8830188 -96.23942916 210.89673908 -100.10150754 210.91047966 C-132.15000843 211.02444963 -164.19852947 211.13125784 -196.24707031 211.23339844 C-195.8023189 214.39348917 -195.3459627 217.55180427 -194.88769531 220.70996094 C-194.70134521 222.0355603 -194.70134521 222.0355603 -194.51123047 223.38793945 C-191.64313923 242.98656293 -183.96734942 261.56456784 -169.24707031 275.23339844 C-168.38275391 276.12285156 -168.38275391 276.12285156 -167.50097656 277.03027344 C-153.95588693 290.24249697 -135.19861163 295.5102926 -116.65625 295.47998047 C-100.79475192 295.21622435 -87.01695399 290.73208431 -75.48925781 279.62792969 C-65.78006528 269.25905335 -60.98406147 256.16925717 -56.07128906 243.05371094 C-55.24707031 241.23339844 -55.24707031 241.23339844 -53.24707031 239.23339844 C-47.03137012 238.84213853 -41.17444483 239.71714612 -35.05493164 240.74633789 C-34.06693069 240.90732971 -33.07892975 241.06832153 -32.06098938 241.23419189 C-28.81588244 241.7649777 -25.5724608 242.30532435 -22.32910156 242.84667969 C-20.06569159 243.22089836 -17.80223774 243.59485168 -15.53874207 243.96855164 C-10.80477745 244.75183037 -6.07169161 245.54018914 -1.33911133 246.33178711 C4.72513175 247.34543165 10.79182404 248.34349518 16.85932446 249.33743 C21.52994981 250.10480011 26.19892732 250.88184268 30.86748695 251.66167259 C33.10403841 252.03378122 35.34114999 252.40253942 37.57881737 252.76787758 C40.70397613 253.27930787 43.82661331 253.80407195 46.94897461 254.33227539 C48.3338205 254.55454048 48.3338205 254.55454048 49.74664307 254.78129578 C54.28267268 255.56336892 58.07272531 256.26808886 61.75292969 259.23339844 C63.92770681 265.604121 61.59368609 270.20475498 58.94042969 275.98339844 C58.5331665 276.89790771 58.12590332 277.81241699 57.70629883 278.75463867 C37.38018581 323.70907687 5.26773392 359.03651259 -41.45263672 377.08544922 C-95.66783987 396.81849545 -162.95572157 394.28966902 -215.43457031 370.51855469 C-232.11053297 362.72051328 -246.59776609 352.43663716 -259.77148438 339.65771484 C-261.12971319 338.34667796 -262.51159483 337.06026286 -263.89550781 335.77636719 C-274.64168013 325.55563862 -282.89093188 313.04069921 -290.24707031 300.23339844 C-290.60510742 299.61303711 -290.96314453 298.99267578 -291.33203125 298.35351562 C-304.44449524 275.39248805 -311.88327756 250.20031147 -316.24707031 224.23339844 C-316.39950195 223.34942383 -316.55193359 222.46544922 -316.70898438 221.5546875 C-321.82302521 190.43967014 -321.39930602 156.30627353 -316.24707031 125.23339844 C-316.10253418 124.3473291 -315.95799805 123.46125977 -315.80908203 122.54833984 C-314.82467468 116.72583747 -313.61976793 110.9761326 -312.24707031 105.23339844 C-312.03711426 104.35377441 -311.8271582 103.47415039 -311.61083984 102.56787109 C-305.06680324 75.7786668 -294.31893812 50.06756542 -277.24707031 28.23339844 C-276.5084375 27.28464844 -275.76980469 26.33589844 -275.00878906 25.35839844 C-267.22372364 15.6236097 -258.95633546 6.09167716 -249.24707031 -1.76660156 C-248.26609375 -2.58515625 -247.28511719 -3.40371094 -246.27441406 -4.24707031 C-226.77078988 -20.26277819 -205.25285686 -30.39909674 -181.24707031 -37.76660156 C-180.17972656 -38.09660156 -179.11238281 -38.42660156 -178.01269531 -38.76660156 C-175.10349094 -39.57377965 -172.21269555 -40.19848781 -169.24707031 -40.76660156 C-168.25368652 -40.96745361 -168.25368652 -40.96745361 -167.24023438 -41.17236328 C-109.03755893 -52.47471769 -45.22819185 -38.80203094 0 0 Z M-178.07910156 76.33886719 C-189.89488018 92.11452837 -195.24707031 111.69560712 -195.24707031 131.23339844 C-147.72707031 131.23339844 -100.20707031 131.23339844 -51.24707031 131.23339844 C-51.24707031 124.32425103 -51.42431368 118.63235745 -52.87207031 112.04589844 C-53.0502832 111.22855225 -53.22849609 110.41120605 -53.41210938 109.5690918 C-58.14739761 88.99542621 -68.69142054 71.38321342 -86.74707031 59.79589844 C-117.88959687 41.81632879 -154.93181015 49.66827124 -178.07910156 76.33886719 Z " fill="#FFFFFF" transform="translate(3714.2470703125,300.7666015625)"/>
<path d="M0 0 C3.47705478 3.57250214 4.4991861 5.84699237 4.48101807 10.80232239 C4.48651672 11.96193481 4.49201538 13.12154724 4.49768066 14.31629944 C4.47610901 16.21091164 4.47610901 16.21091164 4.45410156 18.14379883 C4.45297264 19.49427252 4.45360782 20.84474868 4.45587158 22.19522095 C4.45701793 25.85411508 4.43352207 29.5124833 4.40557575 33.17125535 C4.38054861 36.99758113 4.37821907 40.82391933 4.37347412 44.65031433 C4.36104816 51.89282924 4.32823184 59.13510227 4.28807616 66.37751073 C4.24334652 74.6241103 4.22136844 82.8707215 4.20129442 91.11741221 C4.15949875 108.07841466 4.08915424 125.03918174 4 142 C4.84302673 141.99333817 5.68605347 141.98667633 6.55462646 141.97981262 C14.50006754 141.91969693 22.4454322 141.87402329 30.39104843 141.84456348 C34.47596693 141.82890871 38.56069748 141.80767409 42.64550781 141.77368164 C46.58772885 141.74108114 50.52976913 141.72314557 54.47211456 141.71536827 C55.97602433 141.70982597 57.47992422 141.69900315 58.98375702 141.68280983 C61.09062566 141.66102566 63.19674776 141.65803338 65.30371094 141.65942383 C66.50284119 141.65276199 67.70197144 141.64610016 68.93743896 141.63923645 C72.28867804 142.03400569 73.64976422 142.61798128 76 145 C77.24987306 148.74961917 77.15557374 152.24938828 77.16113281 156.15576172 C77.16609772 156.9869754 77.17106262 157.81818909 77.17617798 158.67459106 C77.19079145 161.42629828 77.19759999 164.17794785 77.203125 166.9296875 C77.2088768 168.84156292 77.21463453 170.75343833 77.22039795 172.66531372 C77.23090539 176.67515329 77.23674985 180.68497282 77.24023438 184.69482422 C77.24572077 189.8319177 77.269753 194.96874636 77.29820633 200.10575676 C77.31683257 204.05543796 77.32203829 208.00505535 77.32357025 211.95477676 C77.32659697 213.84859796 77.33462615 215.74241803 77.34775543 217.63619614 C77.36481681 220.2861521 77.3629356 222.93546056 77.35644531 225.58544922 C77.3656601 226.36692322 77.37487488 227.14839722 77.3843689 227.95355225 C77.349701 232.47385699 76.82136356 235.41487304 74 239 C71.14429301 240.4278535 68.72285644 240.11941486 65.53076172 240.11352539 C64.53545944 240.11374443 64.53545944 240.11374443 63.52005005 240.1139679 C61.32322947 240.11327031 59.1264933 240.10548514 56.9296875 240.09765625 C55.40796963 240.09579152 53.88625116 240.09436788 52.36453247 240.09336853 C48.35648953 240.08954767 44.34848274 240.07972104 40.3404541 240.06866455 C36.25171396 240.05844118 32.16296799 240.05386892 28.07421875 240.04882812 C20.04946256 240.0380984 12.02473578 240.02102713 4 240 C4.08397773 265.99994747 4.17913979 291.99983333 4.28752708 317.99969101 C4.33759668 330.07253509 4.3840402 342.14537258 4.421875 354.21826172 C4.45487046 364.74398238 4.49474327 375.26965097 4.54279006 385.79531407 C4.56798 391.36582657 4.58978331 396.93630487 4.60334396 402.50685883 C4.61623259 407.75663943 4.63835961 413.00630227 4.66738319 418.25601768 C4.67640602 420.17635762 4.68213673 422.09671648 4.68421364 424.01707649 C3.9152169 442.40693776 3.9152169 442.40693776 10 459 C15.62809954 464.27634332 22.32930469 464.68308147 29.70800781 464.59814453 C40.15672607 464.13484828 50.04931314 460.99397895 59.91015625 457.70703125 C61.05355469 457.32933594 62.19695313 456.95164062 63.375 456.5625 C64.35210938 456.21316406 65.32921875 455.86382813 66.3359375 455.50390625 C69.60025727 454.8864616 71.10504694 455.44309225 74 457 C76.57103219 459.57103219 76.51532967 461.10212872 77.01708984 464.67895508 C77.1823114 465.85382477 77.34753296 467.02869446 77.51776123 468.23916626 C78.32454637 474.53103862 79.04706532 480.82998264 79.7265625 487.13671875 C79.88054605 488.55150927 80.03463144 489.96628871 80.18881226 491.38105774 C80.5084607 494.32128478 80.82578266 497.26175185 81.14160156 500.20239258 C81.54386762 503.94470135 81.95374276 507.68613387 82.36556435 511.42740154 C82.68498009 514.33973416 82.99946298 517.25258446 83.312603 520.16559792 C83.4615966 521.54469036 83.61226908 522.92360263 83.76475906 524.30231285 C86.07407287 545.23749212 86.07407287 545.23749212 83.53125 549.41015625 C80.00988147 551.62188001 76.4133768 553.05668121 72.5 554.4375 C71.66194824 554.7375293 70.82389648 555.03755859 69.96044922 555.34667969 C49.3709521 562.5252318 27.78704729 566.29443321 6 567 C5.1951416 567.02723145 4.3902832 567.05446289 3.56103516 567.08251953 C-26.95217275 567.9814634 -58.67617744 562.75986438 -83 543 C-83.59425781 542.53980469 -84.18851563 542.07960938 -84.80078125 541.60546875 C-104.65458199 525.62558035 -110.95000551 498.15894285 -113.55769157 474.05398369 C-114.88234427 460.86700123 -115.27713397 447.82833816 -115.22705078 434.58251953 C-115.22648472 432.4413707 -115.22680702 430.30022148 -115.22793579 428.15907288 C-115.2285027 422.42292011 -115.21685724 416.68685333 -115.20278788 410.95072031 C-115.19016856 404.9276719 -115.18910128 398.90462087 -115.18673706 392.88156128 C-115.18055487 381.51020812 -115.16418881 370.13889404 -115.14403808 358.76755798 C-115.12157677 345.80720313 -115.11066008 332.84684627 -115.10064721 319.88647676 C-115.0798192 293.25762962 -115.04470757 266.62881701 -115 240 C-116.30670654 240.02094727 -117.61341309 240.04189453 -118.9597168 240.06347656 C-123.81442274 240.13595553 -128.66908098 240.18182875 -133.52416992 240.21972656 C-135.62418667 240.23982397 -137.72414758 240.26710666 -139.82397461 240.30175781 C-142.84502958 240.3503577 -145.86534377 240.37298762 -148.88671875 240.390625 C-150.29167854 240.42159271 -150.29167854 240.42159271 -151.72502136 240.45318604 C-155.9437818 240.45463355 -158.37624037 240.35954069 -162.09239769 238.21751404 C-164.95920005 234.88496697 -164.69865524 231.5394992 -164.64697266 227.34765625 C-164.65573425 226.47567596 -164.66449585 225.60369568 -164.67352295 224.70529175 C-164.69552397 221.8238545 -164.68096192 218.94395275 -164.6640625 216.0625 C-164.66743044 214.05997422 -164.67228286 212.05745042 -164.67855835 210.05493164 C-164.68593063 205.85836319 -164.67521257 201.6623269 -164.65185547 197.46582031 C-164.62336766 192.08508446 -164.63976971 186.70559549 -164.66971779 181.3249054 C-164.68778105 177.18988643 -164.68203716 173.05516335 -164.66907883 168.9201355 C-164.66574213 166.93618625 -164.66984112 164.95221017 -164.68147659 162.96829224 C-164.69416926 160.19558512 -164.67483111 157.42490012 -164.64697266 154.65234375 C-164.65709381 153.83144257 -164.66721497 153.01054138 -164.67764282 152.1647644 C-164.60572994 148.30371024 -164.36462484 146.40669153 -161.7474823 143.48760986 C-158.96108197 141.97892803 -157.51628913 141.50989868 -154.39331055 141.54589844 C-153.51277512 141.54620056 -152.63223969 141.54650269 -151.72502136 141.54681396 C-150.7883815 141.56745911 -149.85174164 141.58810425 -148.88671875 141.609375 C-147.91716751 141.61503479 -146.94761627 141.62069458 -145.94868469 141.62652588 C-142.86111454 141.64886294 -139.77471761 141.69905502 -136.6875 141.75 C-134.59051159 141.77006842 -132.49350493 141.78831859 -130.39648438 141.8046875 C-125.26387293 141.84871913 -120.13213518 141.91772889 -115 142 C-115.01776489 141.06118988 -115.03552979 140.12237976 -115.05383301 139.15512085 C-115.21616199 130.29815162 -115.3360022 121.44148493 -115.41449738 112.58336449 C-115.45621099 108.02939125 -115.51276477 103.47662079 -115.60351562 98.92333984 C-115.69058514 94.52713884 -115.73830293 90.13209278 -115.75901794 85.73509598 C-115.77377491 84.05963584 -115.80259454 82.38423742 -115.84584045 80.70927048 C-116.16974364 67.64171184 -116.16974364 67.64171184 -113.3890686 63.73908997 C-111.32782247 62.14911922 -109.36764479 61.06950861 -107 60 C-105.40551025 58.99247681 -105.40551025 58.99247681 -103.77880859 57.96459961 C-102.74578613 57.36655518 -101.71276367 56.76851074 -100.6484375 56.15234375 C-100.07590744 55.81886429 -99.50337738 55.48538483 -98.91349792 55.14179993 C-97.06991622 54.06917651 -95.22248412 53.00338497 -93.375 51.9375 C-92.07641216 51.18318393 -90.77815784 50.42829344 -89.48022461 49.67285156 C-86.87534244 48.15697264 -84.26935673 46.64301984 -81.66259766 45.13037109 C-76.61331754 42.19717047 -71.58660199 39.22606921 -66.5625 36.25 C-64.79297957 35.20310671 -63.02344841 34.15623156 -61.25390625 33.109375 C-60.39039551 32.59826172 -59.52688477 32.08714844 -58.63720703 31.56054688 C-53.18693874 28.33539274 -47.73380036 25.11509272 -42.28125 21.89379883 C-37.51081495 19.07525538 -32.7411506 16.2554195 -27.97265625 13.43359375 C-26.48862305 12.55574219 -26.48862305 12.55574219 -24.97460938 11.66015625 C-23.08894353 10.54469195 -21.20351158 9.42883213 -19.31835938 8.3125 C-16.88117921 6.87109773 -14.44112517 5.43470786 -12 4 C-11.31172119 3.59160889 -10.62344238 3.18321777 -9.91430664 2.76245117 C-3.67281101 -0.89338646 -3.67281101 -0.89338646 0 0 Z " fill="#FFFFFF" transform="translate(3288,123)"/>
<path d="M0 0 C1.23854736 0.00491455 2.47709473 0.0098291 3.75317383 0.01489258 C13.31031021 0.13657992 22.17859009 0.98840116 31.4375 3.3125 C32.11748047 3.47878906 32.79746094 3.64507812 33.49804688 3.81640625 C47.70802026 7.36561329 65.82597653 12.70097653 76.4375 23.3125 C77.11956437 29.95568221 74.98544378 35.35503572 72.73828125 41.54296875 C72.15785568 43.18174232 72.15785568 43.18174232 71.56570435 44.85362244 C70.30439439 48.40628964 69.02751325 51.95313075 67.75 55.5 C66.88007177 57.93898059 66.01101662 60.37827276 65.14282227 62.81787109 C62.98681968 68.86743297 60.81774136 74.91220437 58.6439209 80.9553833 C57.19129614 84.99761338 55.74592703 89.04240795 54.30140686 93.08753967 C52.83008256 97.20568299 51.3534601 101.3219139 49.875 105.4375 C49.60628082 106.18639496 49.33756165 106.93528992 49.06069946 107.70687866 C48.31287592 109.78741001 47.56147237 111.86660592 46.80859375 113.9453125 C46.39536865 115.08887207 45.98214355 116.23243164 45.55639648 117.41064453 C43.05353503 123.90180998 43.05353503 123.90180998 40 125.9375 C35.12116841 126.45106122 32.76759689 124.62795946 28.6328125 122.171875 C10.405955 111.56553739 -8.60898034 106.15471054 -29.5625 111.3125 C-44.01564775 115.96074852 -52.67805024 123.99382803 -59.5625 137.3125 C-62.0078123 142.49394733 -63.86403537 147.84684829 -65.5625 153.3125 C-65.78921387 154.04065918 -66.01592773 154.76881836 -66.24951172 155.51904297 C-76.9452904 190.82809107 -75.85712163 228.74577568 -75.86842227 265.2625103 C-75.87296352 270.6065508 -75.89099769 275.95054352 -75.90821838 281.29455566 C-75.95690879 297.10584654 -75.9883986 312.9171643 -76.00952148 328.72851562 C-76.0260465 341.09543007 -76.04877466 353.46225179 -76.09254223 365.82910395 C-76.11428302 372.17102963 -76.12238051 378.51277879 -76.12014949 384.85473919 C-76.12181344 388.78174209 -76.13584007 392.70862846 -76.15336227 396.6355896 C-76.15896781 398.45569514 -76.15944148 400.27582475 -76.15442467 402.09593201 C-76.14829865 404.57801602 -76.160485 407.05936212 -76.17723083 409.54138184 C-76.17101902 410.26188013 -76.1648072 410.98237842 -76.15840715 411.72470999 C-76.21203052 416.07977867 -76.89030219 418.84597342 -79.5625 422.3125 C-81.91747706 423.48998853 -83.3261617 423.44322798 -85.95211792 423.45294189 C-86.87464355 423.45865204 -87.79716919 423.46436218 -88.74765015 423.47024536 C-89.76275665 423.47136322 -90.77786316 423.47248108 -91.82373047 423.47363281 C-93.42386993 423.48108017 -93.42386993 423.48108017 -95.05633545 423.48867798 C-98.59745928 423.50332451 -102.13853832 423.51010554 -105.6796875 423.515625 C-108.13347373 423.52137412 -110.58725995 423.52713188 -113.04104614 423.53289795 C-118.19094045 423.54341484 -123.34081911 423.5492531 -128.49072266 423.55273438 C-135.09755245 423.55822245 -141.70417649 423.58225448 -148.3109417 423.61070633 C-153.38091643 423.62930666 -158.45084134 423.63453691 -163.52084732 423.63607025 C-165.95696259 423.63910288 -168.39307686 423.6471518 -170.82915878 423.66025543 C-174.23375978 423.67726222 -177.63785453 423.67544868 -181.04248047 423.66894531 C-182.05353851 423.6781601 -183.06459656 423.68737488 -184.10629272 423.6968689 C-185.03445801 423.69129974 -185.96262329 423.68573059 -186.91891479 423.67999268 C-187.72380781 423.68145924 -188.52870083 423.6829258 -189.35798454 423.6844368 C-192.1495567 423.2134542 -193.51152432 422.23878812 -195.5625 420.3125 C-196.70319046 416.89042862 -196.69024001 414.2739728 -196.69392776 410.66352272 C-196.6959804 409.98114457 -196.69803303 409.29876643 -196.70014787 408.59571016 C-196.70583518 406.29243675 -196.7043585 403.98922282 -196.70294189 401.6859436 C-196.70552453 400.02462265 -196.70853741 398.36330232 -196.7119453 396.70198286 C-196.72003033 392.12357662 -196.7218057 387.54518604 -196.72254276 382.96677351 C-196.72439068 378.0341649 -196.73193664 373.10156447 -196.73867798 368.16896057 C-196.75227195 357.37782545 -196.75828752 346.58669404 -196.76268864 335.79555178 C-196.76544896 329.06143776 -196.76968589 322.32732518 -196.77419281 315.59321213 C-196.78638629 296.95918938 -196.79668582 278.32516778 -196.8000679 259.69114113 C-196.80028747 258.49805697 -196.80050703 257.30497281 -196.80073325 256.07573458 C-196.80095153 254.87975214 -196.80116981 253.68376969 -196.8013947 252.45154536 C-196.80183817 250.02791826 -196.80228474 247.60429116 -196.80273438 245.18066406 C-196.8029558 243.97845437 -196.80317723 242.77624467 -196.80340537 241.53760438 C-196.80735526 222.04781167 -196.82481475 202.55805631 -196.8480939 183.06827803 C-196.87178516 163.07258799 -196.88426872 143.07691671 -196.88543582 123.0812124 C-196.88635377 111.84859139 -196.89213637 100.61601904 -196.91025543 89.38341141 C-196.92562634 79.82060351 -196.93079469 70.25785933 -196.92251733 60.69504143 C-196.91860028 55.81346081 -196.91959169 50.93200861 -196.93357468 46.05044365 C-196.94625041 41.584539 -196.94517214 37.1188601 -196.93298396 32.65295605 C-196.93101595 31.03452658 -196.93415598 29.41608145 -196.94282833 27.79767402 C-196.95384936 25.60255922 -196.94648437 23.40825124 -196.9344368 21.21315956 C-196.93503389 19.99246604 -196.93563097 18.77177251 -196.93624616 17.51408827 C-196.52664075 14.00532213 -195.67159014 12.11874338 -193.5625 9.3125 C-191.28609601 8.174298 -190.01266398 8.17754768 -187.48332214 8.15859985 C-186.6295549 8.14999939 -185.77578766 8.14139893 -184.89614868 8.13253784 C-183.95741913 8.12827789 -183.01868958 8.12401794 -182.05151367 8.11962891 C-181.06438889 8.11145142 -180.0772641 8.10327393 -179.06022644 8.09484863 C-175.78364677 8.06997408 -172.50711046 8.05347402 -169.23046875 8.0390625 C-167.55459907 8.03107698 -167.55459907 8.03107698 -165.84487343 8.02293015 C-159.93231517 7.99619063 -154.01977809 7.97681757 -148.10717773 7.96240234 C-141.99353067 7.94574529 -135.8804217 7.9009604 -129.76697826 7.8500309 C-125.071837 7.81641201 -120.37682434 7.80483079 -115.68157387 7.79917526 C-113.42767534 7.79244885 -111.17378567 7.77719099 -108.92000389 7.75328445 C-105.76677674 7.72174361 -102.61501273 7.7215798 -99.46166992 7.72900391 C-98.52901306 7.71259857 -97.5963562 7.69619324 -96.63543701 7.67929077 C-92.15117054 7.72255351 -90.17342726 7.85587817 -86.48501587 10.61268616 C-83.94752203 14.1761215 -83.83300455 17.23125875 -83.85546875 21.45703125 C-83.84034744 22.22681808 -83.82522614 22.99660492 -83.80964661 23.78971863 C-83.76684737 26.23511218 -83.7579399 28.6792696 -83.75 31.125 C-83.72684939 32.78844414 -83.70148287 34.45185902 -83.67382812 36.11523438 C-83.61105353 40.18109846 -83.57865751 44.24619425 -83.5625 48.3125 C-82.89045532 47.44455811 -82.89045532 47.44455811 -82.20483398 46.55908203 C-66.84156848 26.75517621 -66.84156848 26.75517621 -58.5625 20.3125 C-57.73105469 19.65636719 -56.89960938 19.00023437 -56.04296875 18.32421875 C-39.30268298 5.6073493 -20.85486078 -0.09783027 0 0 Z " fill="#FFFFFF" transform="translate(2198.5625,256.6875)"/>
<path d="M0 0 C26.76158173 24.34224542 42.49947742 54.09699734 45.68359375 90.4921875 C47.07237268 124.09386305 36.03021235 154.74657843 14.80859375 180.5546875 C14.25300781 181.25207031 13.69742188 181.94945312 13.125 182.66796875 C9.45243838 187.15665518 5.28094362 190.87725696 0.80859375 194.5546875 C-0.07054687 195.30621094 -0.9496875 196.05773437 -1.85546875 196.83203125 C-28.34936328 218.49951864 -62.38336636 227.40479923 -96.203125 224.12890625 C-125.53356982 220.6481858 -149.88169657 207.59163295 -171.19140625 187.5546875 C-171.84367187 186.97847656 -172.4959375 186.40226563 -173.16796875 185.80859375 C-193.92916477 166.62798261 -206.51348371 136.23012767 -208.41308594 108.29467773 C-209.70314748 70.65409997 -199.39372645 37.89829393 -173.5480957 9.98754883 C-128.25826477 -37.47781009 -50.4162848 -43.29957298 0 0 Z " fill="#FFFFFF" transform="translate(320.19140625,301.4453125)"/>
<path d="M0 0 C0.87770477 -0.00694553 1.75540954 -0.01389106 2.65971142 -0.02104706 C5.61251285 -0.03940175 8.56451851 -0.02902927 11.51734924 -0.01878357 C13.62950749 -0.02583777 15.74166068 -0.03458067 17.85380554 -0.04489136 C23.59966336 -0.06745129 29.3452466 -0.06443014 35.09113193 -0.05556989 C39.88263744 -0.05047068 44.67409086 -0.05774389 49.46559101 -0.06504196 C60.7665812 -0.08206204 72.06743643 -0.07845396 83.36842346 -0.06175232 C95.03886966 -0.04482802 106.70894192 -0.06066524 118.37934726 -0.0929752 C128.38875746 -0.1196399 138.39805102 -0.12695555 148.40749317 -0.11846012 C154.39027106 -0.11352191 160.37282386 -0.11579488 166.35557365 -0.13624763 C171.98059219 -0.15455567 177.60507132 -0.14870555 183.23006058 -0.12404823 C185.29729122 -0.11902487 187.36456261 -0.12256939 189.43176079 -0.13519669 C192.24875364 -0.15104574 195.06395247 -0.13625373 197.88085938 -0.11352539 C198.70371553 -0.12536112 199.52657169 -0.13719685 200.37436289 -0.14939123 C204.22202584 -0.08608922 206.100537 0.15343886 209.01111698 2.75981998 C210.53298322 5.56829461 211.00585825 7.06772686 211.01185608 10.22035217 C211.02313538 11.13714249 211.03441467 12.0539328 211.04603577 12.99850464 C211.03793884 13.99190353 211.02984192 14.98530243 211.02149963 16.00880432 C211.02850891 17.06464218 211.03551819 18.12048004 211.04273987 19.20831299 C211.06033545 22.69611461 211.0486909 26.18310392 211.03517151 29.6709137 C211.03786596 32.0955979 211.04174798 34.52028105 211.04676819 36.94496155 C211.05266538 42.02575471 211.04409274 47.10626652 211.02540588 52.18702698 C211.0026167 58.70076645 211.01573852 65.21384667 211.03969574 71.72756195 C211.05414743 76.73413564 211.0495505 81.74055295 211.03918457 86.74713135 C211.03651557 89.1489164 211.03979309 91.55071564 211.04910278 93.95248413 C211.05925752 97.30887989 211.04378085 100.66420694 211.02149963 104.02052307 C211.02959656 105.01392197 211.03769348 106.00732086 211.04603577 107.03082275 C211.03475647 107.94761307 211.02347717 108.86440338 211.01185608 109.80897522 C211.01034798 110.60167564 211.00883987 111.39437607 211.00728607 112.21109772 C210.25789895 115.6405459 209.12350184 117.16886844 206.50392151 119.5146637 C203.444804 120.01349127 200.94047165 120.18686137 197.88085938 120.14285278 C196.56196224 120.15349436 196.56196224 120.15349436 195.21642071 120.16435093 C192.26420491 120.18198153 189.31329688 120.16380045 186.36109924 120.14576721 C184.24717101 120.15090405 182.13324705 120.15818354 180.01933289 120.16744995 C174.2735232 120.18600085 168.52817615 120.17300233 162.78238559 120.15335965 C156.77664042 120.13700455 150.77092527 120.14578157 144.76516724 120.15087891 C134.6797189 120.15540302 124.59445584 120.13950935 114.50904846 120.11158752 C102.83802829 120.07952564 91.16734217 120.07955375 79.49629825 120.09680229 C68.2814663 120.11264809 57.06675718 120.10594691 45.85193062 120.08886528 C41.0732453 120.0819809 36.29465803 120.08304142 31.51597404 120.09041023 C25.89262753 120.09805316 20.26966272 120.08601205 14.64638138 120.05856133 C12.57873862 120.0516558 10.51106035 120.05160257 8.4434185 120.05877686 C5.62851506 120.06742086 2.8148034 120.05160174 0 120.02932739 C-0.82508688 120.03756816 -1.65017376 120.04580893 -2.50026327 120.05429941 C-7.96628017 119.97404433 -7.96628017 119.97404433 -10.50327396 117.77425289 C-11.60374538 115.26961753 -11.87321489 113.57716759 -11.87702942 110.84657288 C-11.88548889 109.91288376 -11.89394836 108.97919464 -11.90266418 108.01721191 C-11.89659149 106.99994522 -11.8905188 105.98267853 -11.88426208 104.93458557 C-11.88951904 103.8577803 -11.894776 102.78097504 -11.90019226 101.67153931 C-11.91340651 98.10868364 -11.90464881 94.54627399 -11.89451599 90.9834137 C-11.89653631 88.51006484 -11.89944739 86.03671656 -11.9032135 83.56336975 C-11.9076388 78.37829419 -11.90119899 73.1933736 -11.88719177 68.00831604 C-11.87009989 61.3566252 -11.87993988 54.70544883 -11.89790916 48.05374908 C-11.9087413 42.94601192 -11.90530323 37.83836108 -11.89752579 32.73062134 C-11.89552221 30.27777056 -11.89798854 27.82491199 -11.90496445 25.37207031 C-11.91256931 21.94608246 -11.90098753 18.52068557 -11.88426208 15.09474182 C-11.89033478 14.07747513 -11.89640747 13.06020844 -11.90266418 12.01211548 C-11.89420471 11.07842636 -11.88574524 10.14473724 -11.87702942 9.18275452 C-11.87589834 8.37308479 -11.87476727 7.56341507 -11.87360191 6.7292099 C-10.68440395 -0.24660583 -6.1274228 -0.06119921 0 0 Z " fill="#FFFFFF" transform="translate(975.4960784912109,412.48533630371094)"/>
</svg>
