<?xml version="1.0" encoding="UTF-8"?>
<!DOCTYPE svg PUBLIC "-//W3C//DTD SVG 1.1//EN" "http://www.w3.org/Graphics/SVG/1.1/DTD/svg11.dtd">
<!-- Creator: CorelDRAW 2021 (64-Bit) -->
<svg xmlns="http://www.w3.org/2000/svg" xml:space="preserve" width="7.2873mm" height="8.3318mm" version="1.1" style="shape-rendering:geometricPrecision; text-rendering:geometricPrecision; image-rendering:optimizeQuality; fill-rule:evenodd; clip-rule:evenodd"
viewBox="0 0 13.19 15.08"
 xmlns:xlink="http://www.w3.org/1999/xlink"
 xmlns:xodm="http://www.corel.com/coreldraw/odm/2003">
 <defs>
  <style type="text/css">
   <![CDATA[
    .fil0 {fill:white}
   ]]>
  </style>
 </defs>
 <g id="Layer_x0020_1">
  <metadata id="CorelCorpID_0Corel-Layer"/>
  <path class="fil0" d="M4.9 11.6l-0 0 -0.01 0 -0.7 0 -3.2 0c-0.55,0 -0.99,0.45 -0.99,0.99l0 2.49 6.29 0c0.83,0 1.39,-0.07 2.17,-0.39l0 0c2.94,-1.12 4.73,-3.82 4.73,-7.08 0,-1.17 -0.26,-2.28 -0.73,-3.27 -0.9,-2.08 -2.53,-3.63 -5.01,-4.17 -0.65,-0.14 -0.93,-0.14 -1.54,-0.16 -1.96,-0.04 -3.92,0.02 -5.88,0.03 0.1,1.91 1.34,2.97 3.3,3.46l1.56 0 0.11 -0 0.11 0 0 0 0 0c2.14,0.06 3.85,1.85 3.85,4.04 0,2.23 -1.77,4.05 -3.96,4.05l-0.09 -0z"/>
  <g id="_1803336796464">
   <path class="fil0" d="M4.54 5.36c1.24,0 2.24,1 2.24,2.24 0,1.24 -1,2.24 -2.24,2.24 -1.24,0 -2.24,-1.01 -2.24,-2.24 0,-1.24 1,-2.24 2.24,-2.24z"/>
   <path class="fil0" d="M4.54 5.36c0.86,0 1.61,0.49 1.99,1.2 -0.22,-0.08 -0.46,-0.12 -0.71,-0.12 -1.24,0 -2.24,1 -2.24,2.24 0,0.38 0.09,0.73 0.26,1.05 -0.89,-0.3 -1.53,-1.14 -1.53,-2.13 0,-1.24 1,-2.24 2.24,-2.24z"/>
  </g>
 </g>
</svg>
