<?xml version="1.0" encoding="UTF-8"?>
<!DOCTYPE svg PUBLIC "-//W3C//DTD SVG 1.1//EN" "http://www.w3.org/Graphics/SVG/1.1/DTD/svg11.dtd">
<!-- Creator: CorelDRAW 2021 (64-Bit) -->
<svg xmlns="http://www.w3.org/2000/svg" xml:space="preserve" width="44.2406mm" height="8.3318mm" version="1.1" style="shape-rendering:geometricPrecision; text-rendering:geometricPrecision; image-rendering:optimizeQuality; fill-rule:evenodd; clip-rule:evenodd"
viewBox="0 0 486.22 91.57"
 xmlns:xlink="http://www.w3.org/1999/xlink"
 xmlns:xodm="http://www.corel.com/coreldraw/odm/2003">
 <defs>
  <style type="text/css">
   <![CDATA[
    .fil0 {fill:white}
   ]]>
  </style>
 </defs>
 <g id="Layer_x0020_1">
  <metadata id="CorelCorpID_0Corel-Layer"/>
  <path class="fil0" d="M29.73 70.39l-0.02 0 -0.04 0 -4.22 0 -19.41 0c-3.32,0 -6.04,2.72 -6.04,6.04l0 15.13 38.2 0c5.02,0 8.45,-0.4 13.2,-2.39l0 0c17.85,-6.81 28.69,-23.2 28.69,-42.97 0,-7.1 -1.59,-13.82 -4.44,-19.85 -5.49,-12.63 -15.37,-22.01 -30.44,-25.32 -3.96,-0.87 -5.62,-0.87 -9.37,-0.95 -11.9,-0.25 -23.81,0.11 -35.71,0.17 0.63,11.61 8.11,18.01 20.04,21.03l9.45 0 0.66 -0.01 0.65 0.01 0.02 0 0 0c12.96,0.36 23.36,11.22 23.36,24.55 0,13.57 -10.76,24.56 -24.03,24.56l-0.55 -0.01z"/>
  <g id="_1802852839824">
   <path class="fil0" d="M27.54 32.51c7.53,0 13.62,6.1 13.62,13.62 0,7.52 -6.1,13.63 -13.62,13.63 -7.52,0 -13.62,-6.1 -13.62,-13.63 0,-7.52 6.1,-13.62 13.62,-13.62z"/>
   <path class="fil0" d="M27.54 32.51c5.23,0 9.77,2.95 12.05,7.26 -1.36,-0.46 -2.82,-0.7 -4.34,-0.7 -7.53,0 -13.62,6.1 -13.62,13.62 0,2.3 0.57,4.46 1.57,6.36 -5.4,-1.81 -9.29,-6.91 -9.29,-12.92 0,-7.52 6.1,-13.62 13.62,-13.62z"/>
  </g>
  <g id="_1802852838384">
   <g>
    <path class="fil0" d="M442.03 64.07l12.34 -1.88c0.37,-0.06 0.72,0.19 0.8,0.55 0.43,1.96 1.31,3.74 2.93,4.98 1.75,1.34 4.14,1.7 6.29,1.7 2.2,0 4.91,-0.28 6.74,-1.6 0.9,-0.68 1.32,-1.58 1.32,-2.72 0,-0.7 -0.2,-1.31 -0.67,-1.81 -0.74,-0.7 -2.77,-1.22 -3.75,-1.43 -4.86,-1.08 -14.98,-3.3 -19.08,-6.1 -3.88,-2.65 -5.82,-6.36 -5.82,-11.05 0,-4.33 1.75,-7.89 5.01,-10.71 4.04,-3.49 10.07,-4.29 15.22,-4.29 4.69,0 10.56,0.54 14.56,3.24 3.43,2.31 5.54,5.67 6.67,9.62 0.05,0.2 0.03,0.39 -0.08,0.57 -0.11,0.17 -0.27,0.29 -0.48,0.33l-11.53 2.15c-0.37,0.07 -0.72,-0.16 -0.82,-0.52 -0.42,-1.55 -1.23,-2.86 -2.55,-3.79 -1.54,-1.07 -3.71,-1.32 -5.54,-1.32 -1.95,0 -4.91,0.15 -6.6,1.24 -0.67,0.46 -1.08,1.06 -1.08,1.89 0,0.72 0.36,1.24 0.93,1.66 1.64,1.21 9.16,2.86 11.24,3.33 4.37,0.99 10.52,2.68 14.02,5.62 2.95,2.48 4.11,5.89 4.11,9.68 0,4.68 -2.06,8.48 -5.58,11.51 -4.4,3.79 -10.63,4.76 -16.25,4.76 -5.3,0 -10.98,-0.88 -15.43,-3.95 -3.85,-2.66 -6.34,-6.28 -7.52,-10.8 -0.05,-0.2 -0.02,-0.4 0.1,-0.57 0.12,-0.17 0.28,-0.28 0.49,-0.31z"/>
    <path class="fil0" d="M406.57 58.96c0.16,2.66 0.88,5.29 2.74,7.29 1.76,1.89 3.93,2.81 6.51,2.81 1.61,0 3.11,-0.39 4.38,-1.41 1.42,-1.14 2.23,-2.99 2.73,-4.69 0.1,-0.35 0.44,-0.57 0.8,-0.51l12.25 2.06c0.22,0.04 0.39,0.15 0.5,0.34 0.11,0.19 0.13,0.39 0.06,0.6 -1.49,4.28 -3.94,8 -7.71,10.6 -3.87,2.68 -8.48,3.65 -13.13,3.65 -7.31,0 -14.05,-2.13 -18.47,-8.21 -3.49,-4.8 -4.73,-10.58 -4.73,-16.44 0,-6.75 1.53,-13.47 6.21,-18.56 4.22,-4.59 9.53,-6.77 15.75,-6.77 6.61,0 12.46,2.05 16.86,7.09 4.99,5.71 6.02,14.16 5.88,21.45 -0.01,0.39 -0.33,0.7 -0.71,0.7l-29.92 0zm17.02 -8.94c-0.15,-2.48 -0.78,-5.07 -2.52,-6.92 -1.59,-1.7 -3.51,-2.56 -5.84,-2.56 -2.44,0 -4.46,0.87 -6.08,2.69 -1.68,1.88 -2.3,4.32 -2.38,6.79l16.82 0z"/>
    <path class="fil0" d="M380.52 41.88l0 18.08c0,1.37 -0.12,5.22 0.21,6.48 0.13,0.5 0.41,0.87 0.83,1.17 0.49,0.35 1.06,0.48 1.66,0.48 1.44,0 3.36,-0.64 4.71,-1.13 0.21,-0.08 0.43,-0.05 0.62,0.06 0.19,0.12 0.31,0.3 0.33,0.53l1.03 9.54c0.03,0.32 -0.14,0.61 -0.43,0.73 -3.15,1.35 -6.54,1.89 -9.95,1.89 -2.14,0 -4.26,-0.34 -6.24,-1.17 -1.62,-0.68 -3.17,-1.67 -4.2,-3.14 -1.03,-1.48 -1.55,-3.34 -1.85,-5.1 -0.45,-2.66 -0.4,-6.11 -0.4,-8.81l0 -19.6 -4.92 0c-0.39,0 -0.71,-0.32 -0.71,-0.71l0 -9.75c0,-0.39 0.32,-0.71 0.71,-0.71l4.92 0 0 -8.5c0,-0.26 0.13,-0.48 0.35,-0.62l12.25 -7.24c0.23,-0.13 0.49,-0.13 0.72,-0.01 0.23,0.13 0.36,0.36 0.36,0.62l0 15.74 7.69 0c0.39,0 0.71,0.32 0.71,0.71l0 9.75c0,0.39 -0.32,0.71 -0.71,0.71l-7.69 0z"/>
    <path class="fil0" d="M343.42 74.12c-1.81,1.64 -3.83,3 -6.08,3.97 -2.51,1.08 -5.16,1.61 -7.9,1.61 -4.33,0 -8.53,-1.05 -11.74,-4.09 -2.96,-2.79 -4.34,-6.29 -4.34,-10.34 0,-2.63 0.61,-5.13 1.98,-7.38 1.35,-2.21 3.23,-3.86 5.56,-4.98 2.99,-1.44 6.68,-2.3 9.92,-2.92 3.43,-0.65 7.99,-1.48 11.33,-2.79l0 -0.76c0,-1.56 -0.25,-3.48 -1.5,-4.57 -1.38,-1.21 -4.42,-1.34 -6.14,-1.34 -1.59,0 -3.37,0.24 -4.7,1.18 -1.35,0.96 -2.19,2.72 -2.72,4.24 -0.12,0.34 -0.45,0.53 -0.8,0.47l-11.09 -1.97c-0.21,-0.04 -0.37,-0.14 -0.48,-0.32 -0.11,-0.17 -0.14,-0.37 -0.08,-0.57 1.14,-4.13 3.19,-7.92 6.74,-10.45 3.89,-2.77 9.39,-3.4 14.04,-3.4 3.89,0 8.99,0.29 12.55,2.01 2.42,1.17 4.65,2.83 5.96,5.23 1.57,2.88 1.73,8.11 1.73,11.33l-0.18 14.31c0,2.78 0.02,6.13 0.57,8.87 0.42,2.09 1.2,4.13 2.13,6.05 0.11,0.23 0.1,0.47 -0.04,0.69 -0.13,0.22 -0.35,0.34 -0.6,0.34l-12.16 0c-0.3,0 -0.56,-0.18 -0.66,-0.46 -0.46,-1.18 -0.84,-2.42 -1.2,-3.64 -0.03,-0.1 -0.06,-0.21 -0.09,-0.32zm-1.27 -17.49c-2.15,0.65 -4.45,1.14 -6.6,1.6 -1.68,0.36 -4.99,1.08 -6.42,2.02 -1.28,0.92 -2.09,2.11 -2.09,3.73 0,1.57 0.59,2.85 1.71,3.94 1.22,1.19 2.7,1.67 4.39,1.67 2.18,0 4.15,-0.77 5.91,-2.04 1.27,-0.96 2.21,-2.16 2.66,-3.69 0.45,-1.54 0.45,-4.17 0.45,-5.78l0 -1.47z"/>
    <path class="fil0" d="M277.34 58.96c0.16,2.66 0.88,5.29 2.74,7.29 1.76,1.89 3.93,2.81 6.51,2.81 1.61,0 3.12,-0.39 4.38,-1.41 1.42,-1.14 2.23,-2.99 2.73,-4.69 0.1,-0.35 0.44,-0.57 0.8,-0.51l12.25 2.06c0.21,0.04 0.39,0.15 0.5,0.34 0.11,0.19 0.13,0.39 0.06,0.6 -1.49,4.28 -3.94,8 -7.71,10.6 -3.87,2.68 -8.48,3.65 -13.13,3.65 -7.31,0 -14.05,-2.13 -18.47,-8.21 -3.49,-4.8 -4.73,-10.58 -4.73,-16.44 0,-6.75 1.53,-13.47 6.21,-18.56 4.22,-4.59 9.53,-6.77 15.75,-6.77 6.61,0 12.46,2.05 16.86,7.09 4.99,5.71 6.02,14.16 5.88,21.45 -0.01,0.39 -0.33,0.7 -0.71,0.7l-29.92 0zm17.02 -8.94c-0.15,-2.48 -0.78,-5.07 -2.52,-6.92 -1.59,-1.7 -3.51,-2.56 -5.84,-2.56 -2.44,0 -4.46,0.87 -6.09,2.69 -1.68,1.88 -2.3,4.32 -2.38,6.79l16.82 0z"/>
    <path class="fil0" d="M244.3 35.64c1.19,-1.68 2.64,-3.41 4.19,-4.36 1.74,-1.07 3.66,-1.55 5.7,-1.55 3.03,0 5.85,0.87 8.45,2.41 0.3,0.18 0.42,0.53 0.31,0.85l-3.8 10.7c-0.07,0.21 -0.23,0.36 -0.44,0.44 -0.22,0.07 -0.43,0.05 -0.62,-0.08 -1.58,-1.02 -3.46,-1.9 -5.38,-1.9 -1.44,0 -2.8,0.35 -3.94,1.26 -1.36,1.07 -2.13,3.15 -2.58,4.76 -1.1,3.96 -1,11.22 -1,15.35l0 14.31c0,0.39 -0.32,0.71 -0.71,0.71l-12.25 0c-0.39,0 -0.71,-0.32 -0.71,-0.71l0 -46.41c0,-0.39 0.32,-0.71 0.71,-0.71l11.36 0c0.39,0 0.71,0.32 0.71,0.71l0 4.22z"/>
    <path class="fil0" d="M209.44 53.54l12.52 3.85c0.37,0.11 0.58,0.5 0.48,0.87 -1.69,6.2 -4.66,12.11 -9.85,16.08 -5.06,3.87 -11.16,5.27 -17.44,5.27 -8.4,0 -15.7,-2.78 -21.5,-8.94 -6.28,-6.66 -8.41,-15.38 -8.41,-24.33 0,-9.18 2.02,-18.43 8.45,-25.33 5.94,-6.38 13.59,-9.08 22.24,-9.08 7.38,0 14.16,2.04 19.58,7.16 3.43,3.24 5.48,7.66 6.75,12.14 0.06,0.2 0.03,0.38 -0.07,0.56 -0.1,0.17 -0.25,0.29 -0.45,0.33l-12.79 3.04c-0.19,0.05 -0.37,0.02 -0.54,-0.09 -0.17,-0.1 -0.27,-0.25 -0.32,-0.45 -0.68,-2.97 -2.09,-5.54 -4.49,-7.46 -2.41,-1.92 -5.25,-2.72 -8.32,-2.72 -4.41,0 -8.12,1.52 -11.03,4.87 -3.58,4.12 -4.27,10.85 -4.27,16.07 0,5.29 0.62,12.59 4.2,16.81 2.84,3.34 6.45,4.9 10.83,4.9 3.19,0 6.01,-0.98 8.41,-3.1 2.82,-2.49 4.29,-6.35 5.11,-9.94 0.05,-0.2 0.16,-0.35 0.34,-0.46 0.18,-0.1 0.37,-0.13 0.57,-0.07z"/>
   </g>
   <path class="fil0" d="M111.43 51.94l0 -12.25c0,-0.39 0.32,-0.71 0.71,-0.71l24.14 0c0.39,0 0.71,0.32 0.71,0.71l0 12.25c0,0.39 -0.32,0.71 -0.71,0.71l-24.14 0c-0.39,0 -0.71,-0.32 -0.71,-0.71z"/>
  </g>
 </g>
</svg>
